<?xml version="1.0" encoding="UTF-8" standalone="no"?>
<!-- Created with Inkscape (http://www.inkscape.org/) -->

<svg
   width="512"
   height="512"
   viewBox="0 0 135.46667 135.46667"
   version="1.1"
   id="svg681"
   inkscape:version="1.2.2 (b0a8486541, 2022-12-01)"
   sodipodi:docname="favicon.svg"
   xmlns:inkscape="http://www.inkscape.org/namespaces/inkscape"
   xmlns:sodipodi="http://sodipodi.sourceforge.net/DTD/sodipodi-0.dtd"
   xmlns="http://www.w3.org/2000/svg"
   xmlns:svg="http://www.w3.org/2000/svg">
  <sodipodi:namedview
     id="namedview683"
     pagecolor="#ffffff"
     bordercolor="#000000"
     borderopacity="0.25"
     inkscape:showpageshadow="2"
     inkscape:pageopacity="0.0"
     inkscape:pagecheckerboard="0"
     inkscape:deskcolor="#d1d1d1"
     inkscape:document-units="mm"
     showgrid="false"
     inkscape:zoom="0.7500982"
     inkscape:cx="82.655844"
     inkscape:cy="264.63202"
     inkscape:window-width="2560"
     inkscape:window-height="1531"
     inkscape:window-x="0"
     inkscape:window-y="32"
     inkscape:window-maximized="1"
     inkscape:current-layer="layer1" />
  <defs
     id="defs678">
    <linearGradient
       id="SVGID_00000066473660896873954800000016722329305158604968_"
       gradientUnits="userSpaceOnUse"
       x1="142.08211"
       y1="199.5658"
       x2="142.08211"
       y2="97.838203">
      <stop
         offset="0"
         style="stop-color:#F3336F"
         id="stop166" />
      <stop
         offset="1"
         style="stop-color:#FAD70B"
         id="stop168" />
    </linearGradient>
    <linearGradient
       id="SVGID_00000158748853790531855300000005347476717758700969_"
       gradientUnits="userSpaceOnUse"
       x1="163.00661"
       y1="199.5657"
       x2="163.00661"
       y2="97.838097">
      <stop
         offset="0"
         style="stop-color:#F3336F"
         id="stop175" />
      <stop
         offset="1"
         style="stop-color:#FAD70B"
         id="stop177" />
    </linearGradient>
    <linearGradient
       id="SVGID_00000117649966053154897480000010506944216316707241_"
       gradientUnits="userSpaceOnUse"
       x1="102.8645"
       y1="93.267601"
       x2="102.8645"
       y2="207.04269">
      <stop
         offset="0"
         style="stop-color:#532FF5"
         id="stop184" />
      <stop
         offset="0.1512"
         style="stop-color:#5931F4"
         id="stop186" />
      <stop
         offset="0.3557"
         style="stop-color:#6A38F2"
         id="stop188" />
      <stop
         offset="0.5907"
         style="stop-color:#8743EE"
         id="stop190" />
      <stop
         offset="0.8464"
         style="stop-color:#AE52E9"
         id="stop192" />
      <stop
         offset="1"
         style="stop-color:#C95DE6"
         id="stop194" />
    </linearGradient>
    <linearGradient
       id="SVGID_00000088114214213709218420000007418081738936798892_"
       gradientUnits="userSpaceOnUse"
       x1="81.940498"
       y1="93.267601"
       x2="81.940498"
       y2="207.0423">
      <stop
         offset="0"
         style="stop-color:#532FF5"
         id="stop201" />
      <stop
         offset="0.1512"
         style="stop-color:#5931F4"
         id="stop203" />
      <stop
         offset="0.3557"
         style="stop-color:#6A38F2"
         id="stop205" />
      <stop
         offset="0.5907"
         style="stop-color:#8743EE"
         id="stop207" />
      <stop
         offset="0.8464"
         style="stop-color:#AE52E9"
         id="stop209" />
      <stop
         offset="1"
         style="stop-color:#C95DE6"
         id="stop211" />
    </linearGradient>
    <linearGradient
       id="SVGID_00000133503352634707352120000004041695849110336188_"
       gradientUnits="userSpaceOnUse"
       x1="122.4737"
       y1="168.6694"
       x2="122.4737"
       y2="108.7615">
      <stop
         offset="0"
         style="stop-color:#C5BAEB"
         id="stop220" />
      <stop
         offset="1"
         style="stop-color:#FFFFFF"
         id="stop222" />
    </linearGradient>
  </defs>
  <g
     inkscape:label="Layer 1"
     inkscape:groupmode="layer"
     id="layer1"
     transform="translate(-84.105538,-79.546014)">
    <g
       id="g229"
       transform="matrix(1.1018332,0,0,1.1018323,16.893564,-10.775672)">
      <g
         id="g218">
        <g
           id="g173">
          <linearGradient
             id="linearGradient562"
             gradientUnits="userSpaceOnUse"
             x1="142.08211"
             y1="199.5658"
             x2="142.08211"
             y2="97.838203">
            <stop
               offset="0"
               style="stop-color:#F3336F"
               id="stop558" />
            <stop
               offset="1"
               style="stop-color:#FAD70B"
               id="stop560" />
          </linearGradient>
          <path
             style="fill:url(#SVGID_00000066473660896873954800000016722329305158604968_)"
             d="m 151.659,151.525 h -24.707 c -4.451,0 -8.06,-3.609 -8.06,-8.06 0,-4.451 3.609,-8.06 8.06,-8.06 h 24.707 c 5.852,0 10.614,-4.761 10.614,-10.614 0,-5.853 -4.761,-10.614 -10.614,-10.614 h -37.827 c -4.451,0 -8.06,-3.609 -8.06,-8.06 0,-4.451 3.609,-8.06 8.06,-8.06 h 37.827 c 14.741,0 26.734,11.993 26.734,26.735 0,14.741 -11.993,26.733 -26.734,26.733 z"
             id="path171" />
        </g>
        <g
           id="g182">
          <linearGradient
             id="linearGradient570"
             gradientUnits="userSpaceOnUse"
             x1="163.00661"
             y1="199.5657"
             x2="163.00661"
             y2="97.838097">
            <stop
               offset="0"
               style="stop-color:#F3336F"
               id="stop566" />
            <stop
               offset="1"
               style="stop-color:#FAD70B"
               id="stop568" />
          </linearGradient>
          <path
             style="fill:url(#SVGID_00000158748853790531855300000005347476717758700969_)"
             d="m 175.885,201.528 c -1.981,0 -3.965,-0.726 -5.522,-2.191 l -7.001,-6.588 c -13.535,-12.736 -21.296,-30.7 -21.296,-49.284 0,-4.451 3.609,-8.06 8.06,-8.06 4.451,0 8.06,3.609 8.06,8.06 0,14.158 5.913,27.842 16.223,37.545 l 7.001,6.587 c 3.242,3.051 3.397,8.152 0.347,11.394 -1.586,1.686 -3.727,2.537 -5.872,2.537 z"
             id="path180" />
        </g>
        <g
           id="g199">
          <linearGradient
             id="linearGradient586"
             gradientUnits="userSpaceOnUse"
             x1="102.8645"
             y1="93.267601"
             x2="102.8645"
             y2="207.04269">
            <stop
               offset="0"
               style="stop-color:#532FF5"
               id="stop574" />
            <stop
               offset="0.1512"
               style="stop-color:#5931F4"
               id="stop576" />
            <stop
               offset="0.3557"
               style="stop-color:#6A38F2"
               id="stop578" />
            <stop
               offset="0.5907"
               style="stop-color:#8743EE"
               id="stop580" />
            <stop
               offset="0.8464"
               style="stop-color:#AE52E9"
               id="stop582" />
            <stop
               offset="1"
               style="stop-color:#C95DE6"
               id="stop584" />
          </linearGradient>
          <path
             style="fill:url(#SVGID_00000117649966053154897480000010506944216316707241_)"
             d="M 131.115,188.839 H 93.288 c -14.741,0 -26.734,-11.993 -26.734,-26.735 0,-14.742 11.993,-26.734 26.734,-26.734 h 24.708 c 4.451,0 8.06,3.609 8.06,8.06 0,4.451 -3.609,8.06 -8.06,8.06 H 93.288 c -5.852,0 -10.614,4.761 -10.614,10.614 0,5.853 4.761,10.614 10.614,10.614 h 37.827 c 4.451,0 8.06,3.609 8.06,8.06 0,4.451 -3.609,8.061 -8.06,8.061 z"
             id="path197" />
        </g>
        <g
           id="g216">
          <linearGradient
             id="linearGradient602"
             gradientUnits="userSpaceOnUse"
             x1="81.940498"
             y1="93.267601"
             x2="81.940498"
             y2="207.0423">
            <stop
               offset="0"
               style="stop-color:#532FF5"
               id="stop590" />
            <stop
               offset="0.1512"
               style="stop-color:#5931F4"
               id="stop592" />
            <stop
               offset="0.3557"
               style="stop-color:#6A38F2"
               id="stop594" />
            <stop
               offset="0.5907"
               style="stop-color:#8743EE"
               id="stop596" />
            <stop
               offset="0.8464"
               style="stop-color:#AE52E9"
               id="stop598" />
            <stop
               offset="1"
               style="stop-color:#C95DE6"
               id="stop600" />
          </linearGradient>
          <path
             style="fill:url(#SVGID_00000088114214213709218420000007418081738936798892_)"
             d="m 94.82,151.491 c -4.451,0 -8.06,-3.609 -8.06,-8.06 0,-14.158 -5.913,-27.842 -16.223,-37.545 L 63.536,99.298 C 60.295,96.247 60.14,91.147 63.19,87.904 c 3.051,-3.243 8.15,-3.398 11.394,-0.346 l 7.001,6.588 c 13.534,12.736 21.296,30.7 21.296,49.284 0,4.452 -3.609,8.061 -8.061,8.061 z"
             id="path214" />
        </g>
      </g>
      <g
         id="g227">
        <linearGradient
           id="linearGradient611"
           gradientUnits="userSpaceOnUse"
           x1="122.4737"
           y1="168.6694"
           x2="122.4737"
           y2="108.7615">
          <stop
             offset="0"
             style="stop-color:#C5BAEB"
             id="stop607" />
          <stop
             offset="1"
             style="stop-color:#FFFFFF"
             id="stop609" />
        </linearGradient>
        <path
           style="fill:url(#SVGID_00000133503352634707352120000004041695849110336188_)"
           d="m 122.474,168.669 c -4.451,0 -8.06,-3.609 -8.06,-8.06 v -32.292 c 0,-4.451 3.609,-8.06 8.06,-8.06 4.451,0 8.06,3.609 8.06,8.06 v 32.292 c 0,4.451 -3.609,8.06 -8.06,8.06 z"
           id="path225" />
      </g>
    </g>
  </g>
</svg>
